<?xml version="1.0" encoding="UTF-8" standalone="no"?>
<!-- Created with Inkscape (http://www.inkscape.org/) -->

<svg
   width="32"
   height="32"
   viewBox="-6 -5 40 38"
   version="1.1"
   id="svg1"
   xml:space="preserve"
   xmlns="http://www.w3.org/2000/svg"
   xmlns:svg="http://www.w3.org/2000/svg"><defs
     id="defs1" /><path
     d="m 3.9807407,23.065169 c -1.4214496,0 -2.5777519,-1.188947 -2.5777519,-2.650525 0,-0.47634 0.1222556,-0.939805 0.3535249,-1.341174 l 6.1409574,-10.9368471 0.02504,-0.03862 3.0314379,-5.4048285 c 0.460313,-0.8178683 1.315395,-1.3252554 2.233078,-1.3252554 0.917684,0 1.772766,0.5073871 2.232343,1.3244981 l 9.206274,16.3961999 c 0.222431,0.385464 0.344687,0.848929 0.344687,1.325268 0,1.461579 -1.156302,2.650526 -2.577752,2.650526 z"
     fill="#512bd4"
     id="path1-0"
     style="stroke-width:0.0933535" /><path
     d="M 20.058602,13.977639 H 13.916174 L 13.187029,12.675087 11.073274,8.9113269 c -0.09574,-0.1666 -0.228323,-0.310481 -0.405078,-0.408942 C 10.14528,8.1843309 9.4676901,8.3736479 9.1583541,8.9188999 L 12.229576,3.4512324 c 0.191485,-0.3407872 0.54501,-0.5679687 0.957453,-0.5679687 0.412443,0 0.765969,0.2271815 0.957453,0.5679687 l 3.056492,5.4449485 0.0074,0.01514 0.01473,0.02272 z"
     fill="#7455dd"
     id="path2"
     style="stroke-width:0.0933535" /><path
     d="m 23.498065,20.414644 c 0,0.62855 -0.493455,1.135937 -1.104748,1.135937 h -6.135066 c 0.611292,0 1.104748,-0.507387 1.104748,-1.135937 0,-0.204479 -0.05892,-0.401369 -0.147296,-0.567969 l -3.071222,-5.467682 -0.228308,-0.401354 h 6.142429 l 3.292167,5.869036 c 0.09574,0.1666 0.147296,0.36349 0.147296,0.567969 z"
     fill="#9780e5"
     id="path3"
     style="stroke-width:0.0933535" /><path
     d="m 17.363,20.414644 c 0,0.62855 -0.493456,1.135937 -1.104749,1.135937 h -6.142444 c 0.611306,0 1.104763,-0.507387 1.104763,-1.135937 0,-0.204479 -0.05155,-0.401369 -0.147296,-0.567969 0,-0.0076 -0.0074,-0.01515 -0.01473,-0.02272 L 10.086362,18.195762 7.8989441,14.52289 C 7.7000951,14.189675 7.3465701,13.977639 6.9562209,13.977639 h 6.9599661 l 0.228309,0.401354 0.09353,0.166615 2.977689,5.301067 c 0.08838,0.1666 0.147296,0.36349 0.147296,0.567969 z"
     fill="#b9aaee"
     id="path4"
     style="stroke-width:0.0933535" /><path
     d="m 11.22057,20.414644 c 0,0.62855 -0.493457,1.135937 -1.104763,1.135937 H 3.9807407 c -0.6112928,0 -1.1047488,-0.507387 -1.1047488,-1.135937 0,-0.204479 0.051554,-0.401369 0.1472959,-0.567969 l 2.9754803,-5.301067 c 0.1988494,-0.34836 0.567104,-0.567969 0.9574529,-0.567969 0.3903491,0 0.7438591,0.212036 0.9427231,0.545251 l 2.1874029,3.672872 0.972183,1.628194 c 0.0074,0.0076 0.01473,0.01515 0.01473,0.02272 0.09574,0.1666 0.147296,0.363491 0.147296,0.567969 z"
     fill="#dcd5f6"
     id="path5"
     style="stroke-width:0.0933535" /><path
     d="M 13.916174,13.977639 H 6.9562209 c -0.3903488,0 -0.7586034,0.219609 -0.9574528,0.567969 l 0.3166861,-0.567969 2.8134409,-5.0057311 0.02946,-0.04543 v -0.0076 c 0.309336,-0.545255 0.9869259,-0.734572 1.5098419,-0.416518 0.176755,0.09844 0.309321,0.242342 0.405078,0.408942 l 2.113755,3.7637601 z"
     fill="#9780e5"
     id="path6-9"
     style="stroke-width:0.0933535" /><g
     style="fill:none;stroke:none"
     id="g1"
     transform="translate(8.3640052,7.8428182)"><path
       d="m 12.0122,2.25 c 0.734,0.00846 1.4651,0.09326 2.1815,0.25304 0.3127,0.06975 0.5466,0.33047 0.5821,0.64892 l 0.1702,1.52685 c 0.0771,0.70105 0.669,1.23203 1.3746,1.23277 0.1897,3e-4 0.3773,-0.0392 0.5526,-0.11675 l 1.4006,-0.61527 c 0.2913,-0.12797 0.6317,-0.0582 0.8491,0.17406 1.0122,1.08102 1.766,2.37753 2.2048,3.79196 0.0946,0.305 -0.0143,0.63645 -0.2713,0.82592 l -1.2415,0.9151 c -0.3542,0.2602 -0.5633,0.6734 -0.5633,1.1129 0,0.4394 0.2091,0.8526 0.5641,1.1134 l 1.2425,0.9154 c 0.2571,0.1894 0.3661,0.5209 0.2715,0.826 -0.4386,1.4142 -1.192,2.7106 -2.2036,3.7918 -0.2172,0.2322 -0.5573,0.3022 -0.8486,0.1745 l -1.4063,-0.6161 c -0.4024,-0.1761 -0.8644,-0.1503 -1.2447,0.0695 -0.3802,0.2197 -0.6332,0.6072 -0.6815,1.0437 l -0.1691,1.5267 c -0.0349,0.3148 -0.2637,0.5738 -0.5719,0.6471 -1.4484,0.3446 -2.9575,0.3446 -4.40597,0 C 9.48991,21.4182 9.26105,21.1592 9.22618,20.8444 L 9.05736,19.32 C 9.00777,18.8843 8.75434,18.498 8.37442,18.279 7.99451,18.06 7.5332,18.0343 7.1322,18.2094 L 5.72557,18.8256 C 5.43422,18.9533 5.09403,18.8833 4.87678,18.6509 3.86462,17.5685 3.11119,16.2705 2.6732,14.8548 2.57886,14.5499 2.68786,14.2186 2.94485,14.0293 l 1.24333,-0.916 c 0.35414,-0.2602 0.56329,-0.6734 0.56329,-1.1128 0,-0.4395 -0.20915,-0.8527 -0.56376,-1.1132 L 2.94516,9.97285 C 2.6878,9.78345 2.5787,9.45178 2.67337,9.14658 3.11212,7.73215 3.86594,6.43564 4.87813,5.35462 5.09559,5.12236 5.43594,5.05259 5.72724,5.18056 L 7.12762,5.79572 C 7.53056,5.97256 7.9938,5.94585 8.37577,5.72269 8.75609,5.50209 9.00929,5.11422 9.05817,4.67764 L 9.22824,3.15196 C 9.26376,2.83335 9.49786,2.57254 9.8108,2.50294 10.5281,2.34342 11.26,2.25865 12.0122,2.25 Z m -0.0125,6.74995 c -1.6569,0 -3,1.34315 -3,3.00005 0,1.6568 1.3431,3 3,3 1.6568,0 3,-1.3432 3,-3 0,-1.6569 -1.3432,-3.00005 -3,-3.00005 z"
       fill="#627379"
       id="path1"
       style="stroke:none" /></g></svg>
